<?xml version="1.0" encoding="utf-8"?>
<!-- Generator: Adobe Illustrator 21.1.0, SVG Export Plug-In . SVG Version: 6.00 Build 0)  -->
<svg version="1.1" id="Layer_1" xmlns="http://www.w3.org/2000/svg" xmlns:xlink="http://www.w3.org/1999/xlink" x="0px" y="0px"
	 viewBox="0 0 1366 768" style="enable-background:new 0 0 1366 768;" xml:space="preserve">
<style type="text/css">
	.st0{fill:#A4F4E1;}
</style>
<g>
	<path class="st0" d="M369.4,348.4c3-2.7,6.9-4.3,11.1-4.3h20c18.6,0,33.9,15.6,33.9,33.9v12.8c0,18.5-15.3,33.9-33.9,33.9h-20
		c-4.2,0-8.1-1.6-11.1-4.3l-0.4-0.4c-3-3-4.8-7.2-4.8-11.5v-22.1h-12.1c-1,0-1.9-0.9-1.9-1.9c0-1.2,0.9-2,1.9-2h12.1v-22.1
		c0-4.3,1.7-8.5,4.8-11.5L369.4,348.4z M373,350.2l-1.3,1.3c-2.5,2.5-3.7,5.5-3.6,8.8v22.1h12c1,0,1.9,0.9,1.9,2
		c0,1-0.9,1.9-1.9,1.9h-12v22.1c0,3.5,1.2,6.5,3.6,8.8l1.3,1.3v-0.1c2.2,1.6,4.8,2.5,7.5,2.5h20c7.9,0,15.6-3,21.2-8.8h0.1
		c5.6-5.6,8.6-13.3,8.6-21.2v-12.8c0-7.9-3-15.6-8.6-21.2h-0.1c-5.6-5.8-13.3-8.8-21.2-8.8h-20c-2.7,0-5.3,0.9-7.5,2.5V350.2z"/>
	<path class="st0" d="M499.3,346.3h0.1c2,1.4,3.6,3.5,4.6,5.8l29.3,70.1c0,0.1,0,0.4,0,0.6c0,1-0.7,1.9-1.7,1.9
		c-0.7,0-1.3-0.3-1.4-1l-8.8-21h-59l-8.8,21c-0.3,0.7-0.9,1-1.6,1c-0.9,0-1.7-0.7-1.7-1.7c0-0.3,0-0.4,0.1-0.7l29.3-70.1
		c1-2.5,2.6-4.5,4.9-5.9l0.3-0.3c2.2-1.3,4.5-1.9,6.9-1.9c2.6,0,5.2,0.7,7.4,2.2L499.3,346.3z M488.2,347.9l-1.7,1.2
		c-1.6,1.2-2.9,2.6-3.6,4.3l-19,45.7h56.1l-19.2-45.7c-0.6-1.6-1.7-3.2-3.3-4.2l-0.1-0.1c-1.6-1-3.5-1.6-5.5-1.6
		c-1.2,0-2.5,0.3-3.6,0.7V347.9z"/>
	<path class="st0" d="M552.5,395.9v26.8c0,1-0.9,1.9-2,1.9c-1,0-1.9-0.9-1.9-1.9v-62.4c0-4.3,1.7-8.5,4.8-11.5l0.4-0.4
		c3-2.7,6.9-4.3,11.1-4.3h28.3c14.1,0,25.9,11.8,25.9,25.9c0,14.1-11.7,25.7-25.7,25.9H552.5z M593.2,392c11.7,0,22.1-9.8,22.1-22.1
		c0-12.3-10.4-22.1-22.1-22.1h-28.3c-2.7,0-5.3,0.9-7.5,2.5v-0.1l-1.3,1.3c-2.3,2.3-3.6,5.5-3.6,8.8V392h38.8H593.2z"/>
	<path class="st0" d="M637.4,395.9v26.8c0,1-0.9,1.9-2,1.9c-1,0-1.9-0.9-1.9-1.9v-62.4c0-4.3,1.7-8.5,4.8-11.5l0.4-0.4
		c3-2.7,6.9-4.3,11.1-4.3h28.3c14.1,0,25.9,11.8,25.9,25.9c0,14.1-11.7,25.7-25.7,25.9H637.4z M678.1,392c11.7,0,22.1-9.8,22.1-22.1
		c0-12.3-10.4-22.1-22.1-22.1h-28.3c-2.7,0-5.3,0.9-7.5,2.5v-0.1l-1.3,1.3c-2.3,2.3-3.6,5.5-3.6,8.8V392h38.8H678.1z"/>
	<path class="st0" d="M770.6,348.4c3-2.7,6.9-4.3,11.1-4.3h20c18.6,0,33.9,15.6,33.9,33.9v12.8c0,18.5-15.3,33.9-33.9,33.9h-20
		c-4.2,0-8.1-1.6-11.1-4.3l-0.4-0.4c-3-3-4.8-7.2-4.8-11.5v-22.1h-12.1c-1,0-1.9-0.9-1.9-1.9c0-1.2,0.9-2,1.9-2h12.1v-22.1
		c0-4.3,1.7-8.5,4.8-11.5L770.6,348.4z M774.2,350.2l-1.3,1.3c-2.5,2.5-3.7,5.5-3.6,8.8v22.1h12c1,0,1.9,0.9,1.9,2
		c0,1-0.9,1.9-1.9,1.9h-12v22.1c0,3.5,1.2,6.5,3.6,8.8l1.3,1.3v-0.1c2.2,1.6,4.8,2.5,7.5,2.5h20c7.9,0,15.6-3,21.2-8.8h0.1
		c5.6-5.6,8.6-13.3,8.6-21.2v-12.8c0-7.9-3-15.6-8.6-21.2h-0.1c-5.6-5.8-13.3-8.8-21.2-8.8h-20c-2.7,0-5.3,0.9-7.5,2.5V350.2z"/>
	<path class="st0" d="M967.8,422.5c-2.3-1.4-3.9-3.6-4.9-5.9l-29.3-70.1c-0.1-0.1-0.1-0.4-0.1-0.7c0-1,0.9-1.7,1.7-1.7
		c0.7,0,1.3,0.4,1.6,1l29.3,70.2c0.7,1.7,2,3.3,3.6,4.3l1.7,1.2v-0.3c1.2,0.4,2.5,0.7,3.6,0.7c2,0,3.9-0.6,5.5-1.6l0.1-0.1
		c1.6-1,2.7-2.6,3.3-4.2l29.4-70.2c0.1-0.6,0.7-1,1.4-1c1,0,1.7,0.9,1.7,1.9c0,0.1,0,0.4,0,0.6l-29.3,70.1c-1,2.3-2.6,4.3-4.6,5.8
		l-0.3,0.1c-2.2,1.4-4.8,2.2-7.4,2.2c-2.5,0-4.8-0.6-6.9-1.9L967.8,422.5z"/>
	<g>
		<path class="st0" d="M857.2,347.8h56.7c1,0,1.9-0.9,1.9-1.9l0,0c0-1-0.9-1.9-1.9-1.9h-56.7c-1,0-1.9,0.9-1.9,1.9l0,0
			C855.3,347,856.1,347.8,857.2,347.8z"/>
		<path class="st0" d="M857.2,424.6h56.7c1,0,1.9-0.9,1.9-1.9l0,0c0-1-0.9-1.9-1.9-1.9h-56.7c-1,0-1.9,0.9-1.9,1.9l0,0
			C855.3,423.8,856.1,424.6,857.2,424.6z"/>
		<path class="st0" d="M857.2,386.2h46.3c1,0,1.9-0.9,1.9-1.9l0,0c0-1-0.9-1.9-1.9-1.9h-46.3c-1,0-1.9,0.9-1.9,1.9l0,0
			C855.3,385.4,856.1,386.2,857.2,386.2z"/>
	</g>
</g>
</svg>
